<svg xmlns="http://www.w3.org/2000/svg" viewBox="0 0 260 260">
  <rect width="260" height="260"/>
  <path d="M219.23,129H202c16.52-4.67,28-18.45,28-36.9,0-22.9-17.81-38.57-40.88-38.57-16.15,0-29.78,7.69-36.45,20.23-4.76-9.88-14.59-20.23-33.25-20.23-19.54,0-35.09,10.84-39.7,27.82V53.52H57.1v48.9c0,5.25-3.36,8.39-8.28,8.39a17.39,17.39,0,0,1-9.63-3.36L30,124.68c5.82,4.47,13.55,6,20.83,6,17.32,0,28.85-8.81,28.89-27.87,3.92,14.41,15.75,24.46,31.22,27.15-19.07,3.29-32.62,17.72-32.62,37.89,0,22.94,17.69,38.6,41.1,38.6,17.63,0,27.46-9.6,32.45-18.77v18.77h22.62V182.91l4.15-5.6,18.65,29.21h27.83L193.54,163.7ZM189.12,73.44C200,73.44,207,81.72,207,92.12s-7,18.68-17.92,18.68-17.92-8.28-17.92-18.69S178.26,73.44,189.12,73.44ZM170.5,126.88H151.86v21A33.89,33.89,0,0,0,127.45,130c13.52-2.56,21.22-11.45,25.19-19.56a37.08,37.08,0,0,0,17.85,16.46ZM101.27,92.12c0-10.41,7.28-18.69,18.15-18.69,6.74,0,12.55,5,14.43,10.84L151.54,76a40.44,40.44,0,0,0,0,32l-17.69-8.09c-1.91,5.82-7.69,10.85-14.45,10.85-10.85,0-18.12-8.28-18.12-18.69Zm32.58,83.63c-1.91,5.82-7.69,10.85-14.45,10.85-10.86,0-18.15-8.28-18.15-18.69s7.28-18.69,18.15-18.69c6.72,0,12.55,5,14.45,10.85l18-8.37V184ZM174.46,157V128.43a46.61,46.61,0,0,0,14.62,2.31c1.3,0,2.58-.05,3.85-.15Z" style="fill: #fff"/>
</svg>
