<svg data-name="Layer 1" xmlns="http://www.w3.org/2000/svg" viewBox="0 0 260 260">
<style>
	path {
		fill: #0d0d0d;
	}
	@media (prefers-color-scheme: dark) {
		path {
			fill: #fff;
		}
	}
</style>
<path d="M35.49 30.5l14.31.2c7.81.1 14.62.2 15 .3s.7 7.3.5 16.09-.1 16 .2 16 1.5-2.2 2.8-4.89c2.8-6.1 10.61-14.9 17-18.89C96.64 32 113.56 29 127.87 31.7 140 34 151.39 41.89 157.3 51.79a41.13 41.13 0 002.7 4.3c.1 0 1.9-2.4 4-5.3 5.91-8.1 18.22-16.39 27.33-18.19 19.51-4 34.53-1.8 47.74 7 15 9.89 22.52 25.78 21.32 45-.5 8.9-3.11 17.19-7.11 23.09-4.7 6.9-12.41 13.89-18.62 17-3.3 1.6-6 3.1-6 3.4s4.1.5 9 .5 9 .1 9 .3-6.4 9-14.31 19.49-15.31 20.59-16.51 22.39l-2.3 3.2 14.21 19.29c7.8 10.59 16.81 22.89 20.12 27.18a78.32 78.32 0 015.8 8.5c0 .4-8 .6-17.81.6H218L211.24 219c-3.7-5.8-9.1-14.2-12-18.8l-5.3-8.29-2.6 3.5c-2.61 3.3-2.71 3.9-2.91 18.69l-.3 15.39H158.7l.2-11.29c.1-6.1-.1-11.2-.5-11.2a.82.82 0 00-.8.9c0 2.3-11.41 13-16.72 15.89-15.71 8.3-39.93 7.1-55.35-2.8-6.3-4-13.81-12.19-16.91-18.39-10.51-21.19-5-48 12.71-62.07 5.1-4 8.11-5.49 19.72-9.79l2.9-1.1-3.7-.8c-5.61-1.2-13.82-5.3-19.42-9.79C75 114.56 68.12 105 67 100.26c-.9-4.29-1.3-3.79-2.6 3.3-2.21 11.8-7.91 19.29-18.42 24.09-5 2.3-7.61 2.8-16 3.1-10.71.3-17.22-.9-25-4.7-4.4-2.1-5.4-3.7-3.6-5.5.5-.59 3-5.09 5.61-10s4.9-9.2 5.1-9.4 2 .4 4 1.4c5.11 2.4 10 2.9 13.52 1.5 5.7-2.4 5.9-3.6 5.9-40.18zm75.77 26.69c-7.41 1.7-14.72 8.49-16.72 15.89-2.5 8.89.2 20.29 6.11 25.69 6.4 5.89 17.51 7.59 24.72 3.89 2.8-1.4 7.61-6.39 9.71-10 .9-1.6 1.9-1.4 10.81 2.8 10.41 4.89 12.21 5.39 11.41 3.2-3.31-8.6-3.91-23-1.3-31.49a28 28 0 001.3-5.8c-.4-.4-14.62 5.8-19 8.3-2.6 1.5-2.7 1.4-3.7-1-1.6-4.2-8.81-10.49-12.81-11.19-6.23-1.09-6.63-1.09-10.53-.29zm77.06 10.09c-7.5 12.9-3.7 28.69 8.21 34.88 17.22 8.9 36.43-5.09 33.83-24.58-1.2-8.3-6.51-16.2-12.71-18.69-11.21-4.7-23.92-1-29.33 8.39zm-26.72 40.58l-1.7-2.8-2.3 4.2c-4.71 8.4-19.82 19.79-26.23 19.79-1.1 0-1.6.4-1.3 1a2.82 2.82 0 002.1 1c3.61 0 13.32 6 19.12 11.79 3.5 3.5 6.31 6.8 6.31 7.3a.82.82 0 00.8.9c.4 0 .6-5.6.5-12.49-.2-12.2-.1-12.5 2-12.6 1.2-.1 6.41-.1 11.51-.1h9.31l-5.31-3.5a64.12 64.12 0 01-9.2-7.59 50.84 50.84 0 01-5.61-6.9zm31.83 21.59l-4.81-1.2v18.09c0 17.49.1 18.09 1.71 15.69 16.71-23.68 21.21-30.38 21-30.58a49.06 49.06 0 00-6.7-.5 58.44 58.44 0 01-11.2-1.5zm-95.28 64.77c3.6 5.1 11.91 9.19 18.61 9.09 6.41-.2 13.51-4.29 16.32-9.59 1.1-2 2.5-3.7 3.1-3.7s6 2.2 11.81 5l10.61 4.89.1-2.69c.3-10.1 0-37.38-.4-37.78-.2-.3-5.41 1.79-11.31 4.59-10.11 4.8-11 5-11.91 3.3-2.3-4.2-9.21-10.09-13-11.19-21.08-5.8-36.95 19.29-23.93 38.08z"/>
</svg>