<svg version="1" xmlns="http://www.w3.org/2000/svg" width="933.333" height="933.333" viewBox="0 0 700.000000 700.000000"><path d="M95.4 156.3c-.1 113-.4 116.1-13.1 122.4-5.2 2.5-6.8 2.8-15.3 2.8-9.7-.1-10.9-.4-28.7-7.4-3.9-1.6-5.3-1.7-6.1-.8-1 1.3-4.4 7.5-19 34.7-2.5 4.7-6.1 11-8 14-4 6.2-4.2 8.3-1.2 11.5 2.8 2.9 15.2 8.9 25.9 12.5 14.2 4.7 24.9 5.9 48.6 5.5 11.6-.1 22.1-.5 23.5-.9 1.4-.3 4.8-1.1 7.5-1.7 2.8-.6 9.1-3.1 14.2-5.4 28.7-13.4 43.1-32.3 49.8-65 2.2-11.2 3.5-15.5 4.3-15.5.5 0 1.4 2.4 2.1 5.2 1.9 7.6 11.2 24.3 17.6 31.4.5.7 2.4 2.9 4 4.9 14.5 18 43.7 36.2 67.2 42 11.5 2.8 11.2 2.6 5.2 4.8-36.5 13.3-47.8 19.7-64.5 36.2-17.9 17.7-28.6 36.9-34.8 62.5-9.3 38.8-2 80.7 19.1 109.5 9.5 12.9 25.7 28.5 36.9 35.7 10.6 6.8 25.6 13 40.2 16.7 7.6 2 9.1 2.3 18.7 3.8 6.3 1 39.1 1 46.9.1 7.7-1 23.8-5.1 30.7-7.8 6.9-2.8 18.1-8.6 20.5-10.8 1.1-.9 4.2-3.4 6.9-5.6 9.2-7.2 28.5-27.4 29.2-30.6.6-3.3 2.8-4 3.5-1.2.3 1 .4 14.4.4 29.9l-.1 28.1 39.5-.2 39.5-.1.1-7.5c.1-4.1.5-20.8.8-37 .4-19.2 1.1-31.5 2-35.2 1.2-5.1 5-11.5 11-18.6l2-2.2 4.1 6.5c2.2 3.6 4.6 7.3 5.3 8.3.7.9 9.8 15.2 20.3 31.7s22.6 35.4 26.8 42l7.7 12h42.9c23.7 0 45.4-.2 48.3-.5l5.4-.5-4.9-7.5c-2.7-4.1-13.5-19-23.9-33-16.6-22.3-34.4-46.4-38.8-52.5-.8-1.1-9-12.1-18.1-24.5-9.2-12.4-18-24.4-19.6-26.6l-2.8-4.2 7.7-10.8c6.9-9.7 27.8-38 50.7-68.6 19.7-26.2 30.4-41.2 29.9-41.7-.4-.5-7.7-.7-34-1.1-10.5-.2-14.8-1-12.7-2.3.5-.3 5.4-2.9 10.9-5.8 25.1-13.2 48.8-36 59.7-57.4 4.9-9.8 9.2-21.7 10.3-29 .3-1.7.9-4.6 1.5-6.5.5-1.9.8-15.3.6-30-.4-27.4-.8-30.6-5.8-44.5-10-27.4-27.1-48.8-51.9-64.8-17.2-11.1-36.2-18.4-55-21.2-2.5-.4-5.8-.9-7.5-1.2-4.3-.7-27.9-.6-35 .1-13.5 1.4-15.6 1.7-27.9 4.2-27.8 5.6-58.8 26.8-78.6 53.8l-7.2 9.8-3.8-6c-2.1-3.3-4.4-7.1-5.1-8.3-4-7.7-20.1-24.1-30.9-31.5-12.6-8.6-31.5-17.2-41.9-18.9-1.9-.3-3.7-.7-4-.9-.3-.2-3-.7-6-1.1-3-.4-6.3-.9-7.5-1.1-3.2-.6-26.3-.6-33.1.1-3.3.3-8.7 1-12 1.6-3.3.6-7.1 1.3-8.5 1.5-12.5 2.2-35.9 11.4-47.5 18.7-17.5 11-37.2 33-47.6 53.3-2.9 5.7-5.7 10.4-6.1 10.4-1 0-1 1-1.2-44-.2-20.6-.3-38.5-.4-39.7-.2-2-.7-2.1-13.9-2.3-7.6 0-25.5-.3-39.8-.5l-26-.4-.1 74.2zm225.1-2.8c8.2 1.2 10 1.7 13.9 3.7 10.5 5.3 22.1 16.7 27.6 26.9 1.7 3.2 3.7 5.9 4.5 5.9.8 0 5.1-1.9 9.7-4.3 13.6-7.1 44.6-20.7 47.2-20.7.5 0-2.1 12.1-3.3 15.3-.6 1.5-.8 2.7-.5 2.7.2 0 0 .8-.5 1.8-3.6 6.8-4.4 45-1.1 59.5.5 2.3 1.1 5.6 1.4 7.3.3 1.7 1.5 6.2 2.7 9.9 1.1 3.7 1.8 6.9 1.5 7.3-1 1-8.8-1.9-24.6-9-26.8-12.1-28.4-12.8-31.4-12.8-1.7 0-3.3 1.5-6.1 5.6-5.4 8.2-18.2 20.7-24.1 23.7-19.6 9.9-50.7 4.8-67-11.1-7.9-7.6-14.2-20.4-16.8-34-1.4-7.4-1.5-24.2-.2-30.3 3.7-16.6 16-32.4 32.1-41.4 11-6.1 22.1-8 35-6zm259 2.9c8.3 2.6 15.3 6.5 19.7 10.8 10 10.1 17 23.1 20.4 37.8 2 8.7.5 29.4-2.5 35.9-6.8 14.5-13.2 23-22.4 29.4-20.7 14.6-43.8 16-66.7 4.1-7-3.7-18.7-15.3-22.8-22.6-15.1-27.1-9.1-65.1 13.2-84.2 15.8-13.5 40.2-18 61.1-11.2zM436.1 291.5c5 7.8 20 23.6 28.8 30.6 2.4 1.9 8.8 6.4 14.4 10.1l10 6.7-28.6.1c-15.8 0-29.3.3-30.2.6-2.3.9-2.7 5.8-2.9 36.9 0 16.1-.4 29.6-.8 30-.4.4-1.9-1.2-3.4-3.6-3.5-5.6-20.1-22.7-27.3-28.1-3.1-2.4-5.8-4.5-6.1-4.8-.3-.3-3.3-2.4-6.8-4.7-8.6-5.7-20.1-11.1-25.6-12.2-4.4-.8-7.6-2.5-7.6-4.1 0-.4 2.8-1.3 6.2-2 3.3-.6 8.5-2.2 11.5-3.5 4.8-2.2 22-12.7 23.3-14.4.3-.3 2.8-2.4 5.5-4.6 12.6-10 23.2-22.1 30-34.3 2.2-3.9 4-7 4.2-6.9.1.1 2.5 3.8 5.4 8.2zm95.9 59.1c3 .4 6.4.8 7.5 1 1.1.3 7.4.7 13.9 1 6.6.3 12.8.9 13.8 1.3 2.1.7-3.1 8.7-37.1 57.1-21.3 30.2-20 28.5-20.5 27.9-1.4-1.4-2-31.5-1.7-84.5l.1-9.2 9.3 2.4c5 1.3 11.7 2.6 14.7 3zm-202.8 70.2c3.1 1.1 7.8 3.5 10.5 5.3 6.9 4.7 18.8 16.4 22.5 22.2 3.1 4.8 3.2 4.9 7.1 4.3 2.2-.4 6-1.6 8.6-2.8 5.5-2.5 14.9-6.8 25.1-11.5 10.2-4.7 22.2-9.3 23-8.8.3.2.8 6.8 1 14.7.5 23.3.5 92.7-.1 93.2-.3.3-8.8-3.3-19-8-10.1-4.7-20.6-9.5-23.4-10.8-8.4-3.9-17.3-6.9-18.9-6.3-.7.3-4.2 4.6-7.6 9.5-18.7 27.4-49.4 33-79 14.4-19.6-12.3-30.7-39.3-26.4-64.2 4.5-25.8 22.2-45.9 45.6-52 9.3-2.4 22.9-2 31 .8z"/></svg>