<svg xmlns="http://www.w3.org/2000/svg" viewBox="0 0 380 535"><path d="M364.4 284.4c-2.5-8.7-1-18.7-.3-22.3.2-.6.3-1.2.3-1.8 9-9.7 15.9-26.4 15.9-36.6.1-14.6-11.7-26.5-26.2-26.6H352.7c-2.8-30.5-5.4-50-5.4-50-4.3-82-74-147-157.4-147C106 .1 34.9 64.5 31 147.2c0 0-2.8 19.4-5.2 50-14.2.6-25.5 12.3-25.4 26.6 0 10 6.9 26.9 15.9 36.6.2.6.3 1.2.3 1.8.8 3.8 2 13.6-.3 22.3-1.1 1.9-1.7 4-1.8 6.2 0 4.9 3 9 6.7 10.2 0 42.8 1 89.2 8.7 133 2 2.3 4.1 4.4 6.4 6.4v22.3l12.9 5.7 10.5 24.4h14.9l11.7 19.9h20.3l20.3 13.9 27.3-6.9 34.1 15.4h2.5l33.6-16.2 26.9 8.7 20.3-14.9h20.3l11.6-19.9h14.9l7.7-24.4 10.2-5.7v-22.3s6.4-3.3 9-6.4c7.7-43.5 11-90 11-132.5 5.3-.7 9.3-5.3 9.2-10.7.5-2.2.2-4.5-.9-6.4l-.2.1zm-342-38.7c-4-2.5-6.9-7.4-7.7-13.6-1-9 3.3-16.9 9.5-18.2-.6 9.8-1.3 20.5-1.8 31.8zm168.3 120.5c-24.9 13.4-35.2-3.3-35-9.2 29.8-2.5 34.7-15.9 34.7-15.9s4.9 13.4 34.7 15.9c.7 5.8-10.8 22.4-34.4 9.2zm74.6-30.6c-40-22.8-51.6-34.1-73.7-21.8l-2 .3-1.8-.3c-22.3-12.4-32.7-1.3-72.7 21.6S28 302.6 41.6 204.7s50.1-123.3 61.3-122c11 1.3 82.9 4.9 87.9 4.9s76.5-3.8 87.4-4.9c11.1-1.3 47.5 24.9 61.1 122.8s-34.1 153.1-74 130.1zm90.9-89c-.5-11.7-1.3-22.6-2-32.8h1.5c6.7.8 11.1 9 10.2 18.2-1 7.1-5.1 12.9-9.7 14.6z"/><path d="M298 196.9c-3.8-3.8-29.3-27.6-72.3-19.4-4.5 1-8 3.6-8.1 7.7-.1 4.1 3.1 7.6 7.2 7.7h.7c1.5 0 3.4-1 4.4-1.3 9.2-2.5 32.3-5.7 57.3 16.4.5.5 1.5 1.3 1.5 1.3 1.2.6 2.6.9 4 1 4.3 0 7.7-3.5 7.7-7.7.1-2.2-.8-4.2-2.4-5.7zM143.9 205.8c-2.3-2.4-6.1-2.5-8.5-.2l-.2.2-7.4 7.5-7.4-7.5c-2.3-2.5-6.2-2.5-8.7-.2s-2.5 6.2-.2 8.7l.2.2 7.4 7.5-7.4 7.5c-2.5 2.3-2.6 6.2-.2 8.7s6.2 2.6 8.7.2l.2-.2 7.4-7.5 7.4 7.5c2.3 2.5 6.2 2.5 8.7.2 2.5-2.3 2.5-6.2.2-8.7l-.2-.2-7.4-7.5 7.4-7.5c2.4-2.3 2.5-6.1.2-8.5-.1 0-.2-.1-.2-.2z"/><path d="M156.2 177.5c-42.9-8.2-68.5 15.6-72.3 19.4-1.6 1.5-2.4 3.6-2.5 5.7 0 4.3 3.4 7.7 7.7 7.7 1.4-.1 2.7-.4 3.9-1 0 0 1-.8 1.5-1.3 25.1-22.1 48.5-18.9 57.3-16.4 1 .3 2.3 1.3 3.4 1.3h.8c4.3 0 7.7-3.5 7.7-7.7.2-4.2-3-6.7-7.5-7.7zM270.5 205.8c-2.3-2.4-6.1-2.5-8.5-.2l-.2.2-7.4 7.5-7.4-7.5c-2.5-2.3-6.4-2.2-8.7.2-2.3 2.4-2.3 6.1 0 8.5l7.4 7.5-7.4 7.5c-2.3 2.5-2.3 6.3.2 8.7 2.4 2.3 6.1 2.3 8.5 0l7.4-7.5 7.4 7.5c2.3 2.5 6.2 2.5 8.7.2 2.5-2.3 2.5-6.2.2-8.7l-.2-.2-7.5-7.5 7.5-7.5c2.4-2.3 2.5-6.1.3-8.5-.2 0-.2-.1-.3-.2z"/></svg>